<?xml version="1.0" encoding="utf-8"?>
<!-- Generator: Adobe Illustrator 27.1.1, SVG Export Plug-In . SVG Version: 6.00 Build 0)  -->
<svg version="1.1" id="Laag_1" xmlns:serif="http://www.serif.com/"
	 xmlns="http://www.w3.org/2000/svg" xmlns:xlink="http://www.w3.org/1999/xlink" x="0px" y="0px" viewBox="0 0 575.4 280.6"
	 style="enable-background:new 0 0 575.4 280.6;" xml:space="preserve">
<style type="text/css">
	.st0{fill:none;stroke:#000000;stroke-width:1.07;stroke-linecap:round;stroke-linejoin:round;stroke-miterlimit:1.5;}
	.st1{fill-rule:evenodd;clip-rule:evenodd;fill:#EBEBEB;}
	.st2{fill:none;stroke:#000000;stroke-width:7.990342e-02;stroke-linecap:round;stroke-linejoin:round;stroke-miterlimit:10;}
</style>
<g>
	<g transform="matrix(0.0863946,0,0,0.100794,-8.52963,0.408225)">
		<path class="st0" d="M1593.8,1175.7h3119.8"/>
	</g>
	<g transform="matrix(0.158584,0,0,0.0789114,-372.591,35.3966)">
		<rect x="3164" y="1058.3" class="st1" width="449.9" height="502.3"/>
	</g>
	<g transform="matrix(0.107624,0,0,0.104162,-25.7333,-10.1354)">
		<rect x="2102.2" y="858.4" class="st1" width="736.6" height="380.5"/>
	</g>
	<g>
		
			<image style="overflow:visible;enable-background:new    ;" width="26" height="37" id="_Image1" xlink:href="29869EB2D9C5F31A.png"  transform="matrix(0.7927 0 0 0.7927 269.4835 64.6083)">
		</image>
	</g>
	<g id="B3">
		
			<image style="overflow:visible;enable-background:new    ;" width="7" height="19" id="_Image2" xlink:href="29869EB2D9C5F31E.png"  transform="matrix(0.7927 0 0 0.7927 126.4883 111.0399)">
		</image>
	</g>
	<g id="B1">
		
			<image style="overflow:visible;enable-background:new    ;" width="6" height="15" id="_Image3" xlink:href="29869EB2D9C5F319.png"  transform="matrix(0.7927 0 0 0.7927 277.4109 73.3284)">
		</image>
	</g>
	<g>
		
			<image style="overflow:visible;enable-background:new    ;" width="26" height="37" id="_Image4" xlink:href="29869EB2D9C5F31B.png"  transform="matrix(0.7927 0 0 0.7927 190.2095 143.8823)">
		</image>
	</g>
	<g>
		
			<image style="overflow:visible;enable-background:new    ;" width="7" height="202" id="_Image5" xlink:href="29869EB2D9C5F318.png"  transform="matrix(0.7927 0 0 0.7927 116.4847 38.8443)">
		</image>
	</g>
	<g id="X4">
		
			<image style="overflow:visible;enable-background:new    ;" width="5" height="5" id="_Image6" xlink:href="29869EB2D9C5F326.png"  transform="matrix(0.7927 0 0 0.7927 397.113 117.3239)">
		</image>
	</g>
	<g id="X0">
		
			<image style="overflow:visible;enable-background:new    ;" width="5" height="5" id="_Image6_00000023991810730955050850000005390574650992042392_" xlink:href="29869EB2D9C5F329.png"  transform="matrix(0.7927 0 0 0.7927 127.5815 117.3239)">
		</image>
	</g>
	<g id="X1">
		
			<image style="overflow:visible;enable-background:new    ;" width="5" height="5" id="_Image6_00000029026604933402208570000000381249339262326706_" xlink:href="29869EB2D9C5F32A.png"  transform="matrix(0.7927 0 0 0.7927 196.6814 169.4632)">
		</image>
	</g>
	<g id="X2">
		
			<image style="overflow:visible;enable-background:new    ;" width="5" height="5" id="_Image6_00000142891400503621466090000006555072955620712125_" xlink:href="29869EB2D9C5F328.png"  transform="matrix(0.7927 0 0 0.7927 279.7891 65.998)">
		</image>
	</g>
</g>
<g id="PIDPATH" transform="matrix(0.100794,0,0,0.100794,2.29664,-4.84972)">
	<path class="st2" d="M986.2,867.7c78,29.4,248.9,315.2,272.5,358c127.5,231.4,506,916.8,756.2,788.3
		c296.5-152.2,341.5-1508.4,739.6-1578.6c223-39.3,785.5,526.9,1178.2,790.3"/>
</g>
</svg>
